<svg xmlns="http://www.w3.org/2000/svg" viewBox="0 0 158.67 510.33"><defs><style>.cls-1{fill:none;stroke:#fff;stroke-miterlimit:10;}</style></defs><title>define</title><g id="圖層_2" data-name="圖層 2"><path class="cls-1" d="M69.06,250.12c-16.49,0-30.51-7.68-30.51-29a43.28,43.28,0,0,1,2.75-15.63l18,4.31a22.21,22.21,0,0,0-1.65,7.81c0,5.26,2.89,8.49,10.72,8.49h3.71v-13.6h19.1v13.6h59.09v24H91.18v10.24H73l-.82-10.24Z"/><rect class="cls-1" x="72.08" y="174.03" width="78.19" height="23.97"/><path class="cls-1" d="M72.08,157.69V138.17l9.76-1.62V136c-6.32-6.33-11.68-14.14-11.68-24.51,0-16.7,12.23-23.83,31.74-23.83h48.37v24H104.93c-10.72,0-13.88,2.82-13.88,8.88,0,5.39,2.47,8.62,7,13.34h52.22v23.83Z"/><path class="cls-1" d="M111.25,76.45c-25.43,0-41.09-17.78-41.09-36.36C70.16,18,86.51,7.23,108,7.23A45.82,45.82,0,0,1,118.39,8.3v45c10.72-2.15,15.12-9.42,15.12-19.12,0-5.52-1.65-10.64-4.95-16.16l14.71-7.94a48.85,48.85,0,0,1,8.93,27.47C152.2,59.48,137.08,76.45,111.25,76.45Zm-8.8-48.89c-7.83,0-13.6,3.37-13.6,12.12,0,6.6,4.26,12.39,13.6,14Z"/><polygon class="cls-1" points="16.34 178.67 16.34 202.21 37.8 197.89 37.8 174.26 16.34 178.67"/><path class="cls-1" d="M111.25,416.7c-25.7,0-41.09-15.76-41.09-31.65,0-8.48,3.16-13.47,8.1-18.45l-11.68.94H40.47v-24.1h109.8V363l-7.55,1.75v.54c5.49,5.38,9.48,12.79,9.48,20.06C152.2,404.44,136.67,416.7,111.25,416.7Zm14.29-49.16H94.76a16.76,16.76,0,0,0-4.68,11.86c0,6.59,6.32,12.65,20.75,12.65,15,0,21.3-4.84,21.3-13.06C132.13,374.41,130.62,370.78,125.54,367.54Z"/><path class="cls-1" d="M111.25,334.87c-25.43,0-41.09-17.78-41.09-36.36,0-22.09,16.35-32.86,37.79-32.86a45.13,45.13,0,0,1,10.44,1.08v45c10.72-2.16,15.12-9.43,15.12-19.13,0-5.52-1.65-10.64-4.95-16.16l14.71-7.94A48.85,48.85,0,0,1,152.2,296C152.2,317.9,137.08,334.87,111.25,334.87ZM102.45,286c-7.83,0-13.6,3.36-13.6,12.11,0,6.6,4.26,12.39,13.6,14Z"/><path class="cls-1" d="M108.68,427.74l0,11.58-15.81-2.1,0-13-17.65.07,0,10.57-26.61-3.53v19.27l26.69,3.61,0,11-26.74-3.54V481l26.82,3.63.06,15.18,17.65-.07L93.13,487l15.8,2.14.06,14.07,17.66-.07-.05-11.61,23.87,3.23V475.19l-24-3.17,0-10.86,24,3.25V444.84l-24.08-3.19-.06-14Zm.17,41.94-15.8-2.09,0-11,15.8,2.14Z"/></g></svg>